<svg width="145" height="40" viewBox="0 0 145 40" fill="none" xmlns="http://www.w3.org/2000/svg">
<path d="M10.2886 4.60167C12.3107 3.76415 14.478 3.33301 16.6667 3.33301V11.6663C15.5723 11.6663 14.4887 11.8819 13.4776 12.3007C12.4666 12.7195 11.5479 13.3333 10.7741 14.1071C10.0003 14.8809 9.38648 15.7996 8.96771 16.8106C8.54886 17.8217 8.33333 18.9053 8.33333 19.9997H0C0 17.811 0.431143 15.6437 1.26867 13.6216C2.10629 11.5995 3.3339 9.76225 4.88152 8.21453C6.42924 6.66691 8.26648 5.43929 10.2886 4.60167Z" fill="#155EEF"/>
<path d="M0 20C0 22.1887 0.431143 24.356 1.26867 26.3781C2.10629 28.4002 3.3339 30.2374 4.88152 31.7851C6.42924 33.3328 8.26648 34.5604 10.2886 35.398C12.3107 36.2355 14.478 36.6667 16.6667 36.6667C18.8553 36.6667 21.0227 36.2355 23.0448 35.398C25.0669 34.5604 26.9041 33.3328 28.4518 31.7851C29.9994 30.2374 31.227 28.4002 32.0647 26.3781C32.9022 24.356 33.3333 22.1887 33.3333 20H25C25 21.0944 24.7845 22.178 24.3656 23.189C23.9469 24.2001 23.333 25.1188 22.5592 25.8926C21.7854 26.6664 20.8668 27.2802 19.8557 27.699C18.8447 28.1178 17.761 28.3333 16.6667 28.3333C15.5723 28.3333 14.4887 28.1178 13.4776 27.699C12.4666 27.2802 11.5479 26.6664 10.7741 25.8926C10.0003 25.1188 9.38648 24.2001 8.96771 23.189C8.54886 22.178 8.33333 21.0944 8.33333 20H0Z" fill="#84ADFF"/>
<path d="M16.667 14.6973C13.7382 14.6973 11.3639 17.0715 11.3639 20.0003H21.97C21.97 17.0715 19.5957 14.6973 16.667 14.6973Z" fill="#84ADFF"/>
<path d="M16.667 25.3027C13.7382 25.3027 11.3639 22.9285 11.3639 19.9997H21.97C21.97 22.9285 19.5957 25.3027 16.667 25.3027Z" fill="#155EEF"/>
<path d="M48.2381 27.0952C47.0681 26.6002 46.1681 25.8577 45.5381 24.8902C44.9081 23.9452 44.5931 22.7977 44.5931 21.4702H48.5306C48.5531 22.4602 48.8906 23.2477 49.5656 23.7877C50.2181 24.3502 51.1406 24.6202 52.3106 24.6202C53.4356 24.6202 54.3356 24.4177 54.9656 23.9902C55.5956 23.5627 55.9106 22.9777 55.9106 22.2352C55.9106 21.7177 55.7306 21.3127 55.3706 21.0202C55.0106 20.7502 54.5831 20.5477 54.0431 20.4127C53.5031 20.3002 52.7606 20.1652 51.7706 20.0302C50.3756 19.8502 49.2281 19.6477 48.3506 19.3777C47.4506 19.1302 46.6856 18.6577 46.0556 17.9377C45.4256 17.2177 45.1106 16.2052 45.1106 14.8552C45.1106 13.7527 45.3806 12.7852 45.9656 11.9527C46.5281 11.1202 47.3381 10.4902 48.3956 10.0402C49.4306 9.59023 50.6681 9.36523 52.1081 9.36523C53.5031 9.36523 54.7631 9.61274 55.8656 10.0852C56.9456 10.5802 57.8006 11.2552 58.4306 12.1327C59.0381 13.0102 59.3531 14.0452 59.3531 15.2152H55.4831C55.3931 14.4052 55.0556 13.7527 54.4706 13.3027C53.8856 12.8527 53.0756 12.6052 52.0406 12.6052C50.9606 12.6052 50.1506 12.8077 49.5881 13.1902C49.0031 13.5727 48.7331 14.1127 48.7331 14.8102C48.7331 15.3502 48.9131 15.7777 49.2731 16.0477C49.6331 16.3402 50.0831 16.5427 50.6231 16.6552C51.1631 16.7902 51.9056 16.9027 52.8956 17.0152C54.2906 17.1952 55.4381 17.4202 56.3156 17.6677C57.1931 17.9152 57.9581 18.3877 58.5881 19.1077C59.2181 19.8277 59.5556 20.8402 59.5556 22.1902C59.5556 23.3152 59.2631 24.2827 58.6781 25.1377C58.0931 25.9927 57.2381 26.6677 56.1356 27.1402C55.0331 27.6352 53.7281 27.8602 52.2206 27.8602C50.7131 27.8602 49.3856 27.6127 48.2381 27.0952Z" fill="white"/>
<path d="M63.6808 27.0727C62.7358 26.5327 62.0158 25.7902 61.4983 24.8452C60.9808 23.9002 60.7333 22.8427 60.7333 21.6277C60.7333 20.4352 60.9808 19.3777 61.4983 18.4327C62.0158 17.4877 62.7358 16.7677 63.6808 16.2277C64.6033 15.7102 65.6608 15.4402 66.8533 15.4402C67.8883 15.4402 68.8108 15.7102 69.6433 16.2052C70.4758 16.7002 71.1283 17.4202 71.6233 18.3427C72.0958 19.2877 72.3433 20.3452 72.3433 21.5602V22.6402H64.1308C64.1983 23.4277 64.4683 24.0352 64.9183 24.4852C65.3683 24.9352 66.0208 25.1377 66.8758 25.1377C67.4383 25.1377 67.9108 25.0027 68.2708 24.7327C68.6308 24.4627 68.8558 24.1252 68.9458 23.6977H72.2758C72.0958 24.9577 71.4883 25.9702 70.4983 26.7352C69.5083 27.5002 68.2933 27.8602 66.8533 27.8602C65.6608 27.8602 64.6033 27.6127 63.6808 27.0727ZM68.9908 20.5927C68.9458 19.9177 68.7433 19.3777 68.3383 18.9502C67.9333 18.5452 67.3933 18.3202 66.7183 18.3202C65.9533 18.3202 65.3683 18.5227 64.9408 18.9277C64.5133 19.3327 64.2433 19.8952 64.1533 20.5927H68.9908Z" fill="white"/>
<path d="M75.4798 31.3702C74.4898 30.6952 73.9498 29.6827 73.8373 28.3327H77.1898C77.2348 28.8502 77.5048 29.2327 77.9548 29.4802C78.4048 29.7277 78.9898 29.8402 79.7323 29.8402C80.6323 29.8402 81.3073 29.5927 81.7573 29.0752C82.2073 28.5802 82.4098 27.7927 82.4098 26.7127V25.8802C81.5773 27.0052 80.2723 27.5677 78.4948 27.5677C77.4823 27.5677 76.6048 27.3427 75.8398 26.8477C75.0748 26.3752 74.4898 25.7002 74.0848 24.8002C73.6573 23.9002 73.4548 22.8652 73.4548 21.6727C73.4548 20.4577 73.6573 19.3777 74.0848 18.4327C74.4898 17.4877 75.0973 16.7677 75.8623 16.2277C76.6273 15.7102 77.5048 15.4402 78.4948 15.4402C80.2723 15.4402 81.5773 16.0702 82.4098 17.2852V16.0002H85.7623V26.7127C85.7623 30.4927 83.6923 32.3602 79.5748 32.3602C77.8198 32.3602 76.4473 32.0452 75.4798 31.3702ZM81.6448 23.9227C82.1623 23.3152 82.4323 22.5277 82.4323 21.5377C82.4323 20.5702 82.1623 19.7602 81.6448 19.1302C81.1048 18.5002 80.4298 18.1852 79.6198 18.1852C78.7873 18.1852 78.1123 18.5002 77.5723 19.1302C77.0323 19.7602 76.7848 20.5702 76.7848 21.5377C76.7848 22.5052 77.0323 23.2927 77.5723 23.9002C78.0898 24.5302 78.7648 24.8227 79.6198 24.8227C80.4298 24.8227 81.1048 24.5302 81.6448 23.9227Z" fill="white"/>
<path d="M87.5857 16.0002H90.9157V17.4877C91.3207 16.8577 91.8382 16.3402 92.5132 15.9802C93.1882 15.6202 93.9757 15.4402 94.8757 15.4402C96.7207 15.4402 97.9807 16.1827 98.6332 17.6677C99.6907 16.1827 101.198 15.4402 103.178 15.4402C106.081 15.4402 107.543 17.2627 107.543 20.8852V27.5002H104.146V21.0652C104.146 20.2102 103.943 19.5577 103.538 19.0627C103.133 18.5677 102.571 18.3202 101.851 18.3202C101.041 18.3202 100.388 18.6127 99.9157 19.1977C99.4432 19.7827 99.2182 20.5477 99.2182 21.5152V27.5002H95.8432V21.0652C95.8432 20.2102 95.6407 19.5577 95.2357 19.0627C94.8307 18.5677 94.2682 18.3202 93.5482 18.3202C92.7382 18.3202 92.0857 18.6127 91.6132 19.1977C91.1407 19.7827 90.9157 20.5477 90.9157 21.5152V27.5002H87.5857V16.0002Z" fill="white"/>
<path d="M111.722 27.0727C110.777 26.5327 110.057 25.7902 109.539 24.8452C109.022 23.9002 108.774 22.8427 108.774 21.6277C108.774 20.4352 109.022 19.3777 109.539 18.4327C110.057 17.4877 110.777 16.7677 111.722 16.2277C112.644 15.7102 113.702 15.4402 114.894 15.4402C115.929 15.4402 116.852 15.7102 117.684 16.2052C118.517 16.7002 119.169 17.4202 119.664 18.3427C120.137 19.2877 120.384 20.3452 120.384 21.5602V22.6402H112.172C112.239 23.4277 112.509 24.0352 112.959 24.4852C113.409 24.9352 114.062 25.1377 114.917 25.1377C115.479 25.1377 115.952 25.0027 116.312 24.7327C116.672 24.4627 116.897 24.1252 116.987 23.6977H120.317C120.137 24.9577 119.529 25.9702 118.539 26.7352C117.549 27.5002 116.334 27.8602 114.894 27.8602C113.702 27.8602 112.644 27.6127 111.722 27.0727ZM117.032 20.5927C116.987 19.9177 116.784 19.3777 116.379 18.9502C115.974 18.5452 115.434 18.3202 114.759 18.3202C113.994 18.3202 113.409 18.5227 112.982 18.9277C112.554 19.3327 112.284 19.8952 112.194 20.5927H117.032Z" fill="white"/>
<path d="M121.788 16.0002H125.118V17.4877C125.523 16.8577 126.041 16.3402 126.716 15.9802C127.391 15.6202 128.178 15.4402 129.078 15.4402C131.958 15.4402 133.421 17.2627 133.421 20.8852V27.5002H130.046V21.0652C130.046 20.2102 129.843 19.5577 129.438 19.0627C129.033 18.5677 128.471 18.3202 127.751 18.3202C126.941 18.3202 126.288 18.6127 125.816 19.1977C125.343 19.7827 125.118 20.5477 125.118 21.5152V27.5002H121.788V16.0002Z" fill="white"/>
<path d="M140.054 27.5902C139.154 27.5902 138.457 27.5002 137.962 27.3202C137.444 27.1402 137.062 26.8252 136.837 26.3527C136.589 25.8802 136.477 25.2052 136.499 24.3502V18.8377H134.002V15.8002H136.499V12.6502H139.829V15.8002H142.889V18.8377H139.829V22.6402C139.829 23.2252 139.852 23.6302 139.897 23.8777C139.942 24.1477 140.077 24.3277 140.257 24.4402C140.437 24.5527 140.729 24.5977 141.157 24.5977C141.472 24.5977 142.374 24.5752 142.892 24.5302V27.4777C141.879 27.5677 140.617 27.5902 140.054 27.5902Z" fill="white"/>
</svg>
